<svg width="16" height="10" viewBox="0 0 16 10" fill="none" xmlns="http://www.w3.org/2000/svg">
<path d="M7.97055 9.50626C7.77408 9.5074 7.57931 9.46956 7.39742 9.39491C7.21553 9.32027 7.0501 9.21028 6.9106 9.07126L0.939046 3.07126C0.799851 2.9314 0.689436 2.76537 0.614105 2.58263C0.538773 2.3999 0.5 2.20405 0.5 2.00626C0.5 1.80847 0.538773 1.61262 0.614105 1.42988C0.689436 1.24715 0.799851 1.08112 0.939046 0.941259C1.07824 0.801401 1.24349 0.690459 1.42536 0.614769C1.60722 0.539078 1.80215 0.500122 1.999 0.500122C2.19585 0.500122 2.39077 0.539078 2.57264 0.614769C2.75451 0.690459 2.91975 0.801401 3.05895 0.941259L7.97055 5.90626L12.8971 1.13626C13.0344 0.982824 13.2018 0.859511 13.3887 0.774032C13.5756 0.688553 13.7781 0.642747 13.9835 0.639478C14.1888 0.636209 14.3926 0.675547 14.5822 0.755033C14.7717 0.83452 14.9429 0.952445 15.085 1.10143C15.2271 1.25042 15.337 1.42726 15.408 1.6209C15.479 1.81454 15.5094 2.02082 15.4975 2.22682C15.4855 2.43283 15.4313 2.63413 15.3384 2.81814C15.2454 3.00216 15.1157 3.16492 14.9573 3.29626L8.98571 9.08626C8.7127 9.35073 8.34975 9.5009 7.97055 9.50626Z" fill="#111111" fill-opacity="0.48"/>
</svg>
